<?xml version="1.0" encoding="UTF-8"?>
<svg width="752pt" height="752pt" version="1.1" viewBox="0 0 752 752" xmlns="http://www.w3.org/2000/svg">
 <defs>
  <clipPath id="a">
   <path d="m205 139.21h342v473.58h-342z"/>
  </clipPath>
 </defs>
 <path d="m361.2 568.39h-29.598c-4.0859 0-7.3984 3.3086-7.3984 7.3984 0 4.0938 3.3164 7.3984 7.3984 7.3984h29.598c4.0859 0 7.3984-3.3086 7.3984-7.3984 0-4.0898-3.3164-7.3984-7.3984-7.3984z"/>
 <path d="m415.14 570.54c-1.332 1.3984-2.1445 3.332-2.1445 5.2539 0 1.9258 0.8125 3.8477 2.1445 5.2539 1.4062 1.332 3.332 2.1445 5.2539 2.1445 1.9258 0 3.8477-0.8125 5.2539-2.1445 1.332-1.4062 2.1484-3.3281 2.1484-5.2539s-0.8125-3.8555-2.1445-5.2539c-2.8164-2.7383-7.7734-2.7383-10.512 0z"/>
 <path d="m267.15 570.54c-1.332 1.3984-2.1445 3.332-2.1445 5.2539 0 1.9258 0.8125 3.8477 2.1445 5.2539 1.4062 1.332 3.3281 2.1445 5.2539 2.1445s3.8477-0.8125 5.2539-2.1445c1.332-1.4062 2.1445-3.3281 2.1445-5.2539s-0.8125-3.8555-2.1445-5.2539c-2.7383-2.7383-7.6953-2.7383-10.508 0z"/>
 <g clip-path="url(#a)">
  <path d="m524 279.8h-37v-103.59c0-20.402-16.598-37-37-37h-207.19c-20.402 0-37 16.598-37 37v399.58c0 20.402 16.598 37 37 37h207.19c20.402 0 37-16.598 37-37l-0.003906-147.99h37c12.238 0 22.199-9.9609 22.199-22.199v-103.6c0-12.238-9.9609-22.199-22.199-22.199zm-51.797 295.99c0 12.238-9.9609 22.199-22.199 22.199h-207.19c-12.238 0-22.199-9.9609-22.199-22.199v-399.58c0-12.238 9.9609-22.199 22.199-22.199h207.19c12.238 0 22.199 9.9609 22.199 22.199v103.6h-7.3984l-0.003906-74c0-4.0938-3.3164-7.3984-7.3984-7.3984h-221.99c-4.0859 0-7.3984 3.3086-7.3984 7.3984v340.39c0 4.0938 3.3164 7.3984 7.3984 7.3984h221.99c4.0859 0 7.3984-3.3086 7.3984-7.3984v-118.39h7.3984zm-111-295.99c-12.238 0-22.199 9.9609-22.199 22.199v103.6c0 12.238 9.9609 22.199 22.199 22.199h14.801v22.199c0 2.9883 1.8047 5.6992 4.5664 6.8359 0.91406 0.38281 1.875 0.5625 2.832 0.5625 1.9258 0 3.8164-0.75391 5.2305-2.168l27.43-27.43h33.938v111l-207.19-0.003906v-325.59h207.19v66.598zm170.19 125.8c0 4.0859-3.3242 7.3984-7.3984 7.3984h-111c-1.9609 0-3.8477 0.77734-5.2305 2.168l-16.969 16.969v-11.738c0-4.0938-3.3164-7.3984-7.3984-7.3984h-22.199c-4.0781 0-7.3984-3.3164-7.3984-7.3984l-0.003907-103.6c0-4.0859 3.3242-7.3984 7.3984-7.3984h162.79c4.0781 0 7.3984 3.3164 7.3984 7.3984z"/>
 </g>
 <path d="m442.6 331.6c4.0781 0 7.3984 3.3164 7.3984 7.3984 0 4.0938 3.3164 7.3984 7.3984 7.3984 4.0859 0 7.3984-3.3086 7.3984-7.3984 0-9.6328-6.1992-17.766-14.801-20.832l0.007812-1.3633c0-4.0938-3.3164-7.3984-7.3984-7.3984-4.0859 0-7.3984 3.3086-7.3984 7.3984v1.3672c-8.5977 3.0625-14.801 11.203-14.801 20.832 0 12.238 9.9609 22.199 22.199 22.199 4.0781 0 7.3984 3.3164 7.3984 7.3984 0 4.0859-3.3242 7.3984-7.3984 7.3984-4.0781 0-7.3984-3.3164-7.3984-7.3984 0-4.0938-3.3164-7.3984-7.3984-7.3984-4.0859 0-7.3984 3.3086-7.3984 7.3984 0 9.6328 6.1992 17.766 14.801 20.832l-0.007812 1.3672c0 4.0938 3.3164 7.3984 7.3984 7.3984 4.0859 0 7.3984-3.3086 7.3984-7.3984v-1.3672c8.5977-3.0625 14.801-11.203 14.801-20.832 0-12.238-9.9609-22.199-22.199-22.199-4.0781 0-7.3984-3.3164-7.3984-7.3984 0-4.0859 3.3242-7.4023 7.3984-7.4023z"/>
</svg>
